{
  "accessors": [
    {
      "bufferView": 2,
      "componentType": 5126,
      "count": 8148,
      "max": [
        2.540424108505249,
        3.5512120723724365,
        4.8332829475402832
      ],
      "min": [
        -2.5492579936981201,
        -3.4973878860473633,
        -2.8463740348815918
      ],
      "type": "VEC3"
    },
    {
      "bufferView": 2,
      "byteOffset": 97776,
      "componentType": 5126,
      "count": 8148,
      "max": [
        0.99963235855102539,
        0.99999624490737915,
        0.99993586540222168
      ],
      "min": [
        -0.99999845027923584,
        -0.99950152635574341,
        -0.99999123811721802
      ],
      "type": "VEC3"
    },
    {
      "bufferView": 3,
      "componentType": 5126,
      "count": 8148,
      "max": [
        0.99899613857269287,
        0.99997639656066895,
        0.99983185529708862,
        1
      ],
      "min": [
        -0.999176025390625,
        -0.99975115060806274,
        -0.99987643957138062,
        -1
      ],
      "type": "VEC4"
    },
    {
      "bufferView": 1,
      "componentType": 5126,
      "count": 8148,
      "max": [
        0.99998801946640015,
        0.93278098106384277
      ],
      "min": [
        2.9000000722589903e-05,
        8.9000001025851816e-05
      ],
      "type": "VEC2"
    },
    {
      "bufferView": 0,
      "componentType": 5125,
      "count": 43914,
      "max": [
        8147
      ],
      "min": [
        0
      ],
      "type": "SCALAR"
    }
  ],
  "asset": {
    "extras": {
      "author": "Yu (https://sketchfab.com/FFT_kedar)",
      "license": "CC-BY-4.0 (http://creativecommons.org/licenses/by/4.0/)",
      "source": "https://sketchfab.com/3d-models/human-skull-model-plastic-017c6f4a760f40a0a03de8fae29b306b",
      "title": "Human Skull Model (Plastic)"
    },
    "generator": "Sketchfab-7.91.0",
    "version": "2.0"
  },
  "bufferViews": [
    {
      "buffer": 0,
      "byteLength": 175656,
      "byteOffset": 0,
      "name": "floatBufferViews",
      "target": 34963
    },
    {
      "buffer": 0,
      "byteLength": 65184,
      "byteOffset": 175656,
      "byteStride": 8,
      "name": "floatBufferViews",
      "target": 34962
    },
    {
      "buffer": 0,
      "byteLength": 195552,
      "byteOffset": 240840,
      "byteStride": 12,
      "name": "floatBufferViews",
      "target": 34962
    },
    {
      "buffer": 0,
      "byteLength": 130368,
      "byteOffset": 436392,
      "byteStride": 16,
      "name": "floatBufferViews",
      "target": 34962
    }
  ],
  "buffers": [
    {
      "byteLength": 566760,
      "uri": "scene.bin"
    }
  ],
  "images": [
    {
      "uri": "textures/Skull_LOWSkull_LOW_baseColor.png"
    },
    {
      "uri": "textures/Skull_LOWSkull_LOW_metallicRoughness.png"
    },
    {
      "uri": "textures/Skull_LOWSkull_LOW_normal.jpeg"
    }
  ],
  "materials": [
    {
      "doubleSided": true,
      "name": "Skull_LOWSkull_LOW",
      "normalTexture": {
        "index": 2,
        "scale": 0.39560606990000002,
        "texCoord": 0
      },
      "pbrMetallicRoughness": {
        "baseColorFactor": [
          1,
          1,
          1,
          1
        ],
        "baseColorTexture": {
          "index": 0,
          "texCoord": 0
        },
        "metallicFactor": 0,
        "metallicRoughnessTexture": {
          "index": 1,
          "texCoord": 0
        },
        "roughnessFactor": 0.65000000000000002
      }
    }
  ],
  "meshes": [
    {
      "primitives": [
        {
          "attributes": {
            "NORMAL": 1,
            "POSITION": 0,
            "TANGENT": 2,
            "TEXCOORD_0": 3
          },
          "indices": 4,
          "material": 0,
          "mode": 4
        }
      ]
    }
  ],
  "nodes": [
    {
      "children": [
        1
      ],
      "name": "RootNode (gltf orientation matrix)",
      "rotation": [
        -0.70710678118654746,
        -0,
        -0,
        0.70710678118654757
      ]
    },
    {
      "children": [
        2
      ],
      "name": "RootNode (model correction matrix)"
    },
    {
      "children": [
        3
      ],
      "name": "Skull_LOW2.OBJ.cleaner.materialmerger.gles"
    },
    {
      "mesh": 0,
      "name": ""
    }
  ],
  "samplers": [
    {
      "magFilter": 9729,
      "minFilter": 9987,
      "wrapS": 10497,
      "wrapT": 10497
    }
  ],
  "scene": 0,
  "scenes": [
    {
      "name": "OSG_Scene",
      "nodes": [
        0
      ]
    }
  ],
  "textures": [
    {
      "sampler": 0,
      "source": 0
    },
    {
      "sampler": 0,
      "source": 1
    },
    {
      "sampler": 0,
      "source": 2
    }
  ]
}

