{
  "accessors": [
    {
      "bufferView": 2,
      "componentType": 5126,
      "count": 33995,
      "max": [
        6.5959110260009766,
        5.8444747924804688,
        6.9159688949584961
      ],
      "min": [
        -13.189472198486328,
        -33.624973297119141,
        -14.995844841003418
      ],
      "type": "VEC3"
    },
    {
      "bufferView": 2,
      "byteOffset": 407940,
      "componentType": 5126,
      "count": 33995,
      "max": [
        0.99969601631164551,
        0.99999922513961792,
        0.99999898672103882
      ],
      "min": [
        -0.99986213445663452,
        -0.99900698661804199,
        -0.99975621700286865
      ],
      "type": "VEC3"
    },
    {
      "bufferView": 3,
      "componentType": 5126,
      "count": 33995,
      "max": [
        0.99999397993087769,
        0.9987526535987854,
        0.99999040365219116,
        1
      ],
      "min": [
        -0.99729961156845093,
        -0.99999731779098511,
        -0.99899625778198242,
        -1
      ],
      "type": "VEC4"
    },
    {
      "bufferView": 1,
      "componentType": 5126,
      "count": 33995,
      "max": [
        0.99669098854064941,
        0.99794197082519531
      ],
      "min": [
        0.0020500000100582838,
        0.0024679999332875013
      ],
      "type": "VEC2"
    },
    {
      "bufferView": 0,
      "componentType": 5125,
      "count": 185151,
      "max": [
        33994
      ],
      "min": [
        0
      ],
      "type": "SCALAR"
    },
    {
      "bufferView": 2,
      "byteOffset": 815880,
      "componentType": 5126,
      "count": 63163,
      "max": [
        8.0197610855102539,
        5.9591670036315918,
        6.8823270797729492
      ],
      "min": [
        -13.330498695373535,
        -33.682502746582031,
        -16.108476638793945
      ],
      "type": "VEC3"
    },
    {
      "bufferView": 2,
      "byteOffset": 1573836,
      "componentType": 5126,
      "count": 63163,
      "max": [
        0.99998098611831665,
        0.99999266862869263,
        0.99999314546585083
      ],
      "min": [
        -0.99999862909317017,
        -0.99987399578094482,
        -0.99977988004684448
      ],
      "type": "VEC3"
    },
    {
      "bufferView": 3,
      "byteOffset": 543920,
      "componentType": 5126,
      "count": 63163,
      "max": [
        0.99999719858169556,
        0.91866606473922729,
        0.99705618619918823,
        1
      ],
      "min": [
        -0.99954050779342651,
        -0.99999916553497314,
        -0.99999123811721802,
        -1
      ],
      "type": "VEC4"
    },
    {
      "bufferView": 1,
      "byteOffset": 271960,
      "componentType": 5126,
      "count": 63163,
      "max": [
        0.97567498683929443,
        0.99901098012924194
      ],
      "min": [
        0.0010019999463111162,
        0.0040059997700154781
      ],
      "type": "VEC2"
    },
    {
      "bufferView": 0,
      "byteOffset": 740604,
      "componentType": 5125,
      "count": 347883,
      "max": [
        63162
      ],
      "min": [
        0
      ],
      "type": "SCALAR"
    },
    {
      "bufferView": 2,
      "byteOffset": 2331792,
      "componentType": 5126,
      "count": 65532,
      "max": [
        7.8970980644226074,
        5.9654359817504883,
        6.563176155090332
      ],
      "min": [
        -13.421470642089844,
        -33.676692962646484,
        -16.485176086425781
      ],
      "type": "VEC3"
    },
    {
      "bufferView": 2,
      "byteOffset": 3118176,
      "componentType": 5126,
      "count": 65532,
      "max": [
        0.99998950958251953,
        1,
        0.99997037649154663
      ],
      "min": [
        -0.99998849630355835,
        -0.9999421238899231,
        -0.99998801946640015
      ],
      "type": "VEC3"
    },
    {
      "bufferView": 3,
      "byteOffset": 1554528,
      "componentType": 5126,
      "count": 65532,
      "max": [
        0.99999618530273438,
        0.9954679012298584,
        0.99990636110305786,
        1
      ],
      "min": [
        -0.9991881251335144,
        -0.99999958276748657,
        -0.99999791383743286,
        -1
      ],
      "type": "VEC4"
    },
    {
      "bufferView": 1,
      "byteOffset": 777264,
      "componentType": 5126,
      "count": 65532,
      "max": [
        0.99767798185348511,
        0.99902397394180298
      ],
      "min": [
        0.00099099997896701097,
        0.0011640000157058239
      ],
      "type": "VEC2"
    },
    {
      "bufferView": 0,
      "byteOffset": 2132136,
      "componentType": 5125,
      "count": 355665,
      "max": [
        65531
      ],
      "min": [
        0
      ],
      "type": "SCALAR"
    },
    {
      "bufferView": 2,
      "byteOffset": 3904560,
      "componentType": 5126,
      "count": 4621,
      "max": [
        6.6457328796386719,
        -8.058746337890625,
        0.42157700657844543
      ],
      "min": [
        3.8181030750274658,
        -32.378887176513672,
        -11.558490753173828
      ],
      "type": "VEC3"
    },
    {
      "bufferView": 2,
      "byteOffset": 3960012,
      "componentType": 5126,
      "count": 4621,
      "max": [
        0.99998378753662109,
        0.99999737739562988,
        0.97806257009506226
      ],
      "min": [
        -0.050992980599403381,
        -0.91508674621582031,
        -0.83517014980316162
      ],
      "type": "VEC3"
    },
    {
      "bufferView": 3,
      "byteOffset": 2603040,
      "componentType": 5126,
      "count": 4621,
      "max": [
        0.9999852180480957,
        0.99575722217559814,
        0.68081808090209961,
        1
      ],
      "min": [
        -0.85842615365982056,
        -0.99999308586120605,
        -0.99996286630630493,
        -1
      ],
      "type": "VEC4"
    },
    {
      "bufferView": 1,
      "byteOffset": 1301520,
      "componentType": 5126,
      "count": 4621,
      "max": [
        0.89434897899627686,
        0.9989590048789978
      ],
      "min": [
        0.0010519999777898192,
        0.17576099932193756
      ],
      "type": "VEC2"
    },
    {
      "bufferView": 0,
      "byteOffset": 3554796,
      "componentType": 5125,
      "count": 20019,
      "max": [
        4620
      ],
      "min": [
        0
      ],
      "type": "SCALAR"
    }
  ],
  "asset": {
    "extras": {
      "author": "Geoffrey Marchal (https://sketchfab.com/geoffreymarchal)",
      "license": "CC-BY-4.0 (http://creativecommons.org/licenses/by/4.0/)",
      "source": "https://sketchfab.com/models/e6f1aeff9e9a4ce3881052ee4edd180a",
      "title": "Unknown greek"
    },
    "generator": "Sketchfab-3.18.2",
    "version": "2.0"
  },
  "bufferViews": [
    {
      "buffer": 0,
      "byteLength": 3634872,
      "byteOffset": 0,
      "name": "floatBufferViews",
      "target": 34963
    },
    {
      "buffer": 0,
      "byteLength": 1338488,
      "byteOffset": 3634872,
      "byteStride": 8,
      "name": "floatBufferViews",
      "target": 34962
    },
    {
      "buffer": 0,
      "byteLength": 4015464,
      "byteOffset": 4973360,
      "byteStride": 12,
      "name": "floatBufferViews",
      "target": 34962
    },
    {
      "buffer": 0,
      "byteLength": 2676976,
      "byteOffset": 8988824,
      "byteStride": 16,
      "name": "floatBufferViews",
      "target": 34962
    }
  ],
  "buffers": [
    {
      "byteLength": 11665800,
      "uri": "scene.bin"
    }
  ],
  "images": [
    {
      "uri": "textures/Material_0_baseColor.jpeg"
    },
    {
      "uri": "textures/Material_2_baseColor.jpeg"
    },
    {
      "uri": "textures/Material_1_baseColor.jpeg"
    }
  ],
  "materials": [
    {
      "doubleSided": true,
      "emissiveFactor": [
        0,
        0,
        0
      ],
      "name": "Material_0",
      "pbrMetallicRoughness": {
        "baseColorFactor": [
          1,
          1,
          1,
          1
        ],
        "baseColorTexture": {
          "index": 0,
          "texCoord": 0
        },
        "metallicFactor": 0,
        "roughnessFactor": 0.59999999999999998
      }
    },
    {
      "doubleSided": true,
      "emissiveFactor": [
        0,
        0,
        0
      ],
      "name": "Material_1",
      "pbrMetallicRoughness": {
        "baseColorFactor": [
          1,
          1,
          1,
          1
        ],
        "baseColorTexture": {
          "index": 2,
          "texCoord": 0
        },
        "metallicFactor": 0,
        "roughnessFactor": 0.59999999999999998
      }
    },
    {
      "doubleSided": true,
      "emissiveFactor": [
        0,
        0,
        0
      ],
      "name": "Material_2",
      "pbrMetallicRoughness": {
        "baseColorFactor": [
          1,
          1,
          1,
          1
        ],
        "baseColorTexture": {
          "index": 1,
          "texCoord": 0
        },
        "metallicFactor": 0,
        "roughnessFactor": 0.59999999999999998
      }
    }
  ],
  "meshes": [
    {
      "primitives": [
        {
          "attributes": {
            "NORMAL": 1,
            "POSITION": 0,
            "TANGENT": 2,
            "TEXCOORD_0": 3
          },
          "indices": 4,
          "material": 0,
          "mode": 4
        }
      ]
    },
    {
      "primitives": [
        {
          "attributes": {
            "NORMAL": 6,
            "POSITION": 5,
            "TANGENT": 7,
            "TEXCOORD_0": 8
          },
          "indices": 9,
          "material": 1,
          "mode": 4
        }
      ]
    },
    {
      "primitives": [
        {
          "attributes": {
            "NORMAL": 11,
            "POSITION": 10,
            "TANGENT": 12,
            "TEXCOORD_0": 13
          },
          "indices": 14,
          "material": 2,
          "mode": 4
        }
      ]
    },
    {
      "primitives": [
        {
          "attributes": {
            "NORMAL": 16,
            "POSITION": 15,
            "TANGENT": 17,
            "TEXCOORD_0": 18
          },
          "indices": 19,
          "material": 2,
          "mode": 4
        }
      ]
    }
  ],
  "nodes": [
    {
      "children": [
        1
      ],
      "name": "RootNode (gltf orientation matrix)",
      "rotation": [
        -0.70710678118654746,
        -0,
        -0,
        0.70710678118654757
      ]
    },
    {
      "children": [
        2
      ],
      "matrix": [
        0.89388662576675415,
        -0.42651429772377014,
        0.13802973926067352,
        0,
        -0.033875517547130585,
        0.24275483191013336,
        0.96949601173400879,
        0,
        -0.4470113217830658,
        -0.87129539251327515,
        0.20254690945148468,
        0,
        -2.8871510028839111,
        -15.802864074707031,
        10.01093578338623,
        1
      ],
      "name": "RootNode (model correction matrix)"
    },
    {
      "children": [
        3,
        4,
        5,
        6
      ],
      "name": "ee-exported.obj.cleaner"
    },
    {
      "mesh": 0,
      "name": ""
    },
    {
      "mesh": 1,
      "name": ""
    },
    {
      "mesh": 2,
      "name": ""
    },
    {
      "mesh": 3,
      "name": ""
    }
  ],
  "samplers": [
    {
      "magFilter": 9729,
      "minFilter": 9987,
      "wrapS": 10497,
      "wrapT": 10497
    }
  ],
  "scene": 0,
  "scenes": [
    {
      "name": "OSG_Scene",
      "nodes": [
        0
      ]
    }
  ],
  "textures": [
    {
      "sampler": 0,
      "source": 0
    },
    {
      "sampler": 0,
      "source": 1
    },
    {
      "sampler": 0,
      "source": 2
    }
  ]
}

